# xmcd CD database file
#
# Track frame offsets:
#	150
#	17644
#	36964
#	52383
#
# Disc length: 922 seconds
#
# Revision: 4
# Processed by: cddbd v1.5.2PL0 Copyright (c) Steve Scherf et al.
# Submitted via: CDex 1.70beta3
#
DISCID=32039804
DTITLE=sumika - Fiction e.p -EP
DYEAR=2018
DGENRE=J-Rock
TTITLE0=フィクション
TTITLE1=下弦の月
TTITLE2=ペルソナ・プロムナード
TTITLE3=いいのに
EXTD=YEAR: 2018
EXTT0=
EXTT1=
EXTT2=
EXTT3=
PLAYORDER=
